<svg xmlns="http://www.w3.org/2000/svg" width="1000" viewBox="0 0 750 225" height="300" version="1.0"><defs><clipPath id="a"><path d="M472 31.203h164.984V202H472zm0 0"/></clipPath></defs><path d="M182.347 109.141c2.246-8.98 5.511-17.96 7.96-26.941 2.653-9.594 4.692-19.39 7.348-29.188 1.633-5.714 2.04-11.632 1.426-17.554-.203-1.633 0-3.469-2.04-3.88-.612-.202-1.429-.405-2.042-.405-1.223 0-2.45.613-3.469 1.632-1.223 1.43-2.45 3.063-3.469 4.899-4.695 8.777-9.39 17.758-11.226 27.554-1.02 4.286-2.04 8.368-3.266 12.45-1.633 6.125-2.652 12.86-5.715 18.37-8.574 16.329-17.144 32.86-28.168 47.966-4.285 5.714-9.386 11.023-15.308 15.308-2.653-2.86-4.285-5.918-4.082-9.39.207-6.325.41-12.653 1.633-18.575 2.449-9.796 5.511-19.386 8.574-28.777 4.695-14.289 9.39-28.574 14.082-42.66 2.45-7.14 1.84-14.285-1.223-21.024-1.633-3.875-4.695-6.734-9.187-7.55-1.633-.203-3.266-.407-4.899-.407-7.55 0-13.469 2.243-18.57 7.348.203.406.406.61.61 1.02 1.226-.41 2.245-1.02 3.472-1.43 3.672-.816 7.348-2.04 11.02-2.45 3.265 0 4.898 1.02 5.101 4.493.207 1.43.207 2.855-.203 4.285-1.223 5.309-2.246 10.613-4.082 15.715-5.715 17.555-11.633 34.902-17.348 52.457-3.879 11.84-7.144 23.879-6.941 36.535.207 10.207 8.37 19.39 18.777 19.39 4.695 0 10.207-1.835 14.29-6.327 7.757-8.368 14.491-17.348 20.206-27.145.817-1.227 1.633-2.45 2.856-4.289-1.633 11.434-3.059 21.84-4.692 32.047-.816 3.879-.613 7.55.203 11.226 1.633 7.961 5.918 12.043 12.653 12.043 1.43 0 2.86-.207 4.492-.613 1.836-.41 3.676-.816 3.266-3.676-1.836-.203-3.47-.406-5.918-.609 0-1.84-.207-3.473.203-5.309 3.676-22.453 8.164-44.496 13.676-66.539zM259.499 109.755c-.614-.204-1.43-.614-2.043-.614-.407 0-.817.203-1.02.41-2.039 1.633-3.879 3.47-5.512 5.305-4.285 5.309-9.386 9.594-14.488 14.082-.207-1.836-.207-3.672.203-5.305.614-4.285.203-8.164-1.43-12.042-1.019-2.653-2.652-3.47-5.308-3.672-3.266 0-5.508 1.836-7.55 4.082-3.88 4.285-7.552 8.98-11.227 13.468h-1.02c1.43-4.285 2.86-14.082 3.266-18.367.203-4.492-2.45-6.738-6.532-6.941-3.878 0-5.917 2.039-6.734 6.328-.613 4.082-1.43 7.96-2.246 12.043-1.43 5.918-3.062 11.836-4.082 17.754-.41 1.226.203 3.062 1.02 3.879 1.02 1.023 3.062 1.633 5.308 1.633 3.266 0 6.938-1.02 8.164-2.856 4.082-5.512 8.164-11.226 12.246-16.738.614-.817 1.633-1.223 2.653-2.246v5.922c.203 2.242.613 4.691 1.02 6.734 1.023 4.082 4.491 4.488 7.96 4.488 4.492 0 8.574-1.426 11.637-5.304 3.469-4.082 7.347-7.961 10.816-12.043 1.836-2.247 3.469-4.899 4.899-7.348.406-.816.406-2.45 0-2.652zm0 0"/><path d="M298.28 109.958c-.41-.203-.816-.407-1.226-.407-.817 0-1.633.407-2.45.61-.613.207-1.222 1.023-1.632 1.633-2.04 3.062-3.672 6.125-5.715 9.187-3.469 5.102-7.145 10.203-10.816 15.305-1.024 1.43-2.86 2.656-4.493 3.676-.816.41-1.632.613-2.652.613-1.227 0-2.45-.41-3.266-1.43-1.02-1.02-1.226-3.265-1.02-4.898.817-4.492 2.04-8.98 2.856-13.473 1.43-6.121 2.86-12.246 3.88-18.367.816-4.29-1.02-6.531-5.102-7.348-1.227-.207-2.246-.41-3.266-.41-3.062 0-5.105 1.633-6.125 4.695-1.02 3.88-2.039 7.758-3.266 11.43-2.043 5.715-3.265 11.43-3.675 17.348-.203 4.492.816 8.164 4.289 11.43 3.468 3.472 6.734 4.085 11.43 4.085 7.753 0 11.43-1.023 14.898-5.308 6.328-7.961 12.453-16.125 17.555-25.106.613-1.02 1.43-2.652-.204-3.265zm-33.27-26.739c3.06 0 5.919-.203 8.774-1.02 2.043-.612 2.657-2.448 2.657-4.694-.207-2.247-1.43-3.063-3.676-3.266h-1.836c-4.492 0-7.348 1.02-8.574 3.469-1.836 2.86-.61 5.511 2.656 5.511zm0 0"/><path d="M348.283 109.755c-4.898 7.96-10 15.714-14.695 23.878-3.672 6.125-9.184 10.208-15.101 15.512.406-1.836.609-2.652.816-3.469 3.672-8.98 7.348-17.96 11.226-26.738 2.856-6.937 6.122-13.879 8.981-20.82 1.02-2.04 2.242-4.285.203-6.735-.613-.203-1.226-.203-1.633-.203-6.125 0-7.55 6.938-12.043 9.797-.41-.816-.816-1.633-1.226-2.652-1.223-4.082-4.285-4.082-7.957-4.082-6.739 0-12.657 2.039-17.352 7.348-5.918 6.937-10.203 14.492-12.652 23.265-1.024 3.676-.817 6.942.816 10.613 1.633 3.88 5.102 5.922 8.778 5.922 4.285 0 7.55-3.265 10.203-6.328-.614 2.653-5.715 15.512-6.938 18.371-.41 1.223-1.633 2.45-2.656 3.059-4.285 1.84-8.57 3.265-12.86 4.898-1.835.614-4.081.207-4.898 3.266 5.309 1.023 11.024 0 16.125 2.656-.406 1.836-.61 3.875-1.223 5.715-3.472 11.43-1.43 22.656.817 34.086.816 4.285 4.695 6.734 8.57 6.734 5.309 0 9.797-6.328 11.227-10.816 2.86-7.758 3.265-15.309.203-23.27-1.223-3.062-4.488-5.511-3.672-9.183.816-3.473 2.04-6.738 3.062-10.004.61-2.856 2.04-4.692 4.489-6.531 5.918-4.489 12.043-8.98 16.738-14.493 7.348-8.57 13.676-18.164 18.164-28.574.41-.816.613-1.836.817-2.652-1.43-.613-2.653-1.02-3.47-1.02-1.019 0-1.835.817-2.859 2.45zm-52.656 54.496c-1.633-.41-2.86-.817-5.105-1.633 2.043-1.227 3.472-2.043 6.125-3.266-.41 2.246-.614 3.469-1.02 4.899zm7.348-31.637c1.836-13.473 8.98-28.984 15.101-32.453 2.653 4.082 4.286 7.96.817 12.45-1.223 1.839-2.45 4.081-3.063 6.124-2.242 6.121-7.55 9.184-12.855 13.879zm4.898 73.273c-1.43-3.468-1.023-17.347 1.02-25.308 5.304 8.367 4.695 19.594-1.02 25.308zm0 0"/><path d="M406.25 111.794a188.53 188.53 0 0 0-8.367 9.593c-3.88 4.493-7.551 9.184-11.227 13.676-.406-1.43-.203-2.246 0-3.062 1.227-6.735 2.86-13.266 3.676-19.797.613-4.696-.817-6.531-4.492-6.531-.817 0-2.04.203-3.266.406-.61 0-1.02.207-1.43.613-2.855 1.43-5.101 3.266-6.937 5.918-4.285 6.125-8.778 12.246-14.899 17.758 0-1.223-.207-1.836 0-2.246.817-5.102 1.836-10.203 2.45-15.102.609-5.512 1.222-10.82 1.425-16.328.207-3.879-.816-4.492-3.875-4.898-3.472 0-6.328 0-7.554 3.875-2.04 8.777-3.88 17.554-5.918 26.332-.817 4.082-.203 7.96 1.43 11.632 1.019 3.063 3.265 4.286 6.328 4.696 4.082 0 6.53 0 9.183-4.082 3.063-4.082 6.328-7.961 9.387-11.84.816 1.84.613 3.473.816 5.105 1.024 6.938 4.29 13.063 12.043 13.063 3.063 0 5.512-1.633 8.574-5.106 6.122-7.14 12.247-14.285 18.368-21.43.613-.816 1.226-1.632 1.84-2.652-1.84-1.02-3.063-1.632-4.083-1.632-1.226 0-2.246.613-3.472 2.039zm0 0"/><path d="M455.848 112.407c-1.633 2.652-3.266 5.309-5.508 7.55-4.695 4.9-9.797 9.798-14.902 14.493-2.856 2.652-6.531 3.676-10.41 4.082-3.266 0-4.489-.613-4.692-4.082-.613-6.531-1.226-13.266 5.715-17.348 1.223-.816 2.242-2.043 3.266-3.062 6.324-4.285 9.183-10.614 10.816-17.555 1.02-4.691-.203-6.734-5.101-7.348-1.227-.203-2.45-.203-3.473-.203-17.55 0-24.898 17.352-28.164 31.84-.613 2.45-.816 5.106-.613 7.758 1.02 11.43 8.98 15.922 19.39 15.922 8.164 0 15.309-2.86 21.024-9.594 2.855-3.473 6.328-6.738 9.386-10.207 3.063-3.266 5.922-6.937 8.778-10.613.816-1.223 1.226-2.856 2.043-5.102-3.473 0-5.715.406-7.555 3.469zm-19.797-18.574c-.613 8.367-4.492 14.902-12.246 19.39.203-.816 0-1.632.406-2.246 2.043-5.101 4.082-10.203 6.328-15.308.817-1.836 1.227-2.45 2.45-2.45.816 0 1.632.207 3.062.614zm0 0"/><g clip-path="url(#a)"><path fill="#9f1346" d="M482.621 46.48c3.77-5.355 9.305-8.359 14.66-11.363 3.86-2.164 8.219-3.242 12.867-3.46 7.301-.34 13.747 1.757 19.41 5.964 3.446 2.563 6.489 5.781 9.255 9.086 2.46 2.938 4.433 6.32 6.367 9.656 2.933 5.063 5.05 10.489 6.453 16.184 1.37 5.582 2.531 11.191 2.71 16.965.009.25.208.496.321.742.274-.285.746-.543.797-.867.668-4.477 2.476-8.567 4.164-12.711 1.762-4.32 4-8.36 7.008-11.91 2.734-3.223 5.59-6.364 8.594-9.332 4.199-4.145 8.382-8.344 12.945-12.067 4.668-3.804 10.043-6.504 16.047-7.762 9.23-1.933 17.875-1.097 24.863 5.91 4.059 4.07 6.336 9.22 7.066 14.938.407 3.211.852 6.465.727 9.68-.21 5.469-1.332 10.816-2.836 16.105-2.238 7.871-5.715 15.203-9.144 22.586-2.848 6.125-5.258 12.45-8.063 18.598-1.723 3.785-3.789 7.414-5.762 11.086-1.886 3.52-3.75 7.062-5.8 10.488-4.372 7.313-8.84 14.566-13.297 21.828-5.715 9.313-11.387 18.653-17.235 27.883-1.383 2.184-3.23 4.152-5.16 5.89-1.656 1.493-3.555.813-5.008-.984-1.238-1.531-2.758-2.836-4.175-4.218-5.536-5.399-11.27-10.614-16.555-16.247-3.79-4.035-7.067-8.562-10.41-12.992-2.84-3.761-6.457-6.656-10.059-9.582a578.312 578.312 0 0 0-9.433-7.484c-6.926-5.39-13.485-11.192-19.516-17.559-4.61-4.867-8.465-10.293-11.93-16.031-4.074-6.746-6.75-14.04-8.754-21.578-.797-3.004-.918-6.192-1.23-9.305-.235-2.312-.524-4.656-.36-6.953.508-7.137 1.688-14.152 4.934-20.644 1.758-3.508 3.625-6.965 5.54-10.54m108.577 6.063c-3.472 1.422-6.832 3.02-9.203 6.094-3.414 4.425-7.164 8.636-10.144 13.336-3.602 5.675-6.66 11.707-9.739 17.695-2.8 5.45-3.336 11.531-4.27 17.46-.472 3-.495 6.071-.827 9.099-.309 2.843-2.82 4.324-4.547 2.625-.688-.68-.574-2.157-.848-3.266-.09-.371-.242-.727-.367-1.09-.262.305-.613.563-.77.91-.68 1.516-1.234 3.086-1.964 4.574-.586 1.184-2.829 2.024-3.704 1.32-1.066-.855-2.214-1.73-1.336-3.566 1.43-2.988 2.63-6.093 3.856-9.175.566-1.422 1.133-2.746.312-4.457-2.12-4.438-4.007-8.989-5.91-13.524-3.113-7.41-7.261-14.21-12.176-20.547-2.511-3.238-5.238-6.316-7.894-9.441-5.121-6.031-10.82-11.36-18.305-14.375-2.914-1.176-5.93-2.02-9.113-.985-2.914.954-4.508 3.454-6.262 5.637-1.207 1.5-2.113 3.36-2.703 5.203-.941 2.95-1.52 5.98-.87 9.164.476 2.344.32 4.832.894 7.149 1.62 6.531 4.05 12.8 7.207 18.746 3.246 6.113 6.593 12.18 10.117 18.137a530.092 530.092 0 0 0 11.984 19.285c4.656 7.144 9.485 14.183 14.32 21.21 1.875 2.723 3.723 5.544 6.055 7.852 2.465 2.446 5.426 4.418 8.285 6.442 4.903 3.472 9.82 6.937 14.875 10.183 3.825 2.457 7.871 4.567 11.817 6.84 1.129.652 1.984.742 2.668-.695.668-1.403 1.625-2.664 2.418-4.004 3.136-5.309 6.258-10.625 9.39-15.938 2.735-4.64 5.426-9.308 8.227-13.91 3.125-5.133 6.41-10.168 9.523-15.308 3.97-6.559 7.63-13.313 11.797-19.739 5.938-9.156 8.106-19.359 8.988-29.937.297-3.567-.054-7.207-.355-10.797-.32-3.852-1.29-7.54-3.418-10.89-4.074-6.43-9.906-9.997-17.469-9.88-3.46.055-6.898 1.536-10.539 2.563m-42.851 33.863c-.864-4.32-1.348-8.761-2.684-12.933-1.527-4.778-3.52-9.461-5.824-13.918-3.883-7.504-9.024-14.035-16.473-18.45-5.699-3.375-11.734-4.289-18.137-2.52-.648.18-1.242.563-1.859.852.621.262 1.242.528 1.86.79.164.07.32.164.488.222 5.52 1.918 10.113 5.36 14.23 9.301 3.992 3.824 7.563 8.094 11.227 12.25 5.472 6.21 9.636 13.3 13.472 20.578 1.325 2.508 2.29 5.203 3.461 7.793.13.285.551.438.836.652.09-.351.301-.718.254-1.05a22.764 22.764 0 0 0-.851-3.567m-69.106-13.082c-.32.817-.914 1.633-.914 2.45-.004 2.636.188 5.277.344 7.913.09 1.551.055 3.145.414 4.637 1.148 4.809 2.273 9.59 4.121 14.242 3.629 9.145 8.922 17.153 15.504 24.336 3.266 3.559 6.914 6.774 10.45 10.078 1.96 1.84 4.034 3.56 6.085 5.301.324.274.793.375 1.195.559-.144-.438-.191-.945-.449-1.3-1.605-2.231-3.394-4.34-4.87-6.65-3.267-5.105-6.435-10.273-9.548-15.468-4.273-7.133-8.703-14.188-12.617-21.512-4.148-7.765-8.273-15.62-9.715-24.586m123.54-29.25c2.628-.496 5.109.18 7.55 1 7.004 2.356 11.984 7.121 15.371 13.489 2.41 4.527 3.488 9.464 3.156 14.648-.027.414.235.844.364 1.266.257-.43.722-.852.742-1.297.183-3.852.457-7.707.36-11.555-.067-2.477-.509-4.988-1.138-7.39-2.265-8.669-9.14-13.57-18.054-13.176-2.953.129-5.883.925-8.801 1.504-.836.164-1.61.64-2.41.972.824.18 1.648.36 2.86.54m-49.415 134.304c-.36-.227-.691-.508-1.074-.668-.516-.215-1.07-.344-1.61-.508.266.41.465.887.813 1.215 4.016 3.777 8.035 7.555 12.117 11.266.344.316 1.262.418 1.653.187a5.884 5.884 0 0 0 1.898-1.863c.207-.324.004-1.309-.316-1.504-4.399-2.695-8.852-5.305-13.48-8.125zm0 0"/></g></svg>